<svg width="481" height="401" fill="none" xmlns="http://www.w3.org/2000/svg"><path d="M399.159 349.978c-40.61-15.572-98.524-24.478-158.963-24.478-60.44 0-118.363 8.906-158.896 24.478L76.5 337.895c42.063-16.131 101.682-25.599 163.699-25.599 62.018 0 121.644 9.28 163.7 25.413l-4.739 12.269Z" fill="#000"/><path d="M394.997 400.184a13.784 13.784 0 0 1-4.485-.686c-40.737-14.699-95.431-22.736-154.046-22.736-54.755 0-106.863 7.165-146.77 20.242v.004a13.484 13.484 0 0 1-12.002-1.807c-3.41-2.424-5.432-6.317-5.427-10.462v-40.301L34.37 112.114 160.12 220.74l80.082-165.801 80.083 165.801 125.806-108.626-37.897 232.324.005 42.604c-.005 4.258-2.097 8.251-5.622 10.714a13.193 13.193 0 0 1-7.577 2.429l-.003-.001Zm-158.523-36.499c60.064 0 116.4 8.346 158.591 23.544V343.63l32.336-197.755-111.414 95.917L240.2 85.211l-75.787 156.581-111.22-96.104 32.275 198.256v40.735c41.049-13.577 94.924-20.989 151-20.989l.006-.005Z" fill="#000"/><path d="M240.196 68.448c-9.181 0-17.983-3.593-24.472-9.997-6.49-6.4-10.137-15.08-10.137-24.134 0-9.05 3.647-17.735 10.137-24.135 6.489-6.4 15.291-9.997 24.472-9.997 9.18 0 17.982 3.598 24.472 9.997 6.489 6.4 10.137 15.085 10.137 24.135-.018 9.05-3.67 17.722-10.155 24.118-6.489 6.4-15.283 10.001-24.455 10.014h.001Zm0-55.12c-5.679 0-11.124 2.224-15.138 6.182-4.017 3.962-6.273 9.332-6.273 14.933 0 5.6 2.256 10.97 6.273 14.928 4.014 3.962 9.459 6.187 15.138 6.187 5.678 0 11.123-2.225 15.137-6.187a20.95 20.95 0 0 0 6.273-14.928c0-5.601-2.255-10.97-6.273-14.933-4.013-3.958-9.459-6.183-15.137-6.183ZM29.5 123.882c-7.77 0-15.225-3.041-20.723-8.463C3.284 110.001.196 102.65.196 94.981c0-7.663 3.088-15.015 8.581-20.432 5.498-5.423 12.952-8.464 20.724-8.464 7.771 0 15.225 3.041 20.723 8.464 5.494 5.417 8.582 12.768 8.582 20.432 0 7.669-3.088 15.02-8.582 20.438-5.498 5.422-12.952 8.463-20.723 8.463Zm0-44.785v.004c-6.51 0-12.383 3.867-14.876 9.806-2.494 5.935-1.115 12.765 3.49 17.306 4.607 4.544 11.533 5.904 17.55 3.445 6.018-2.459 9.943-8.251 9.943-14.676 0-4.21-1.696-8.25-4.718-11.227A16.214 16.214 0 0 0 29.5 79.102v-.005ZM450.891 123.882c-7.772 0-15.226-3.041-20.724-8.463-5.493-5.418-8.582-12.769-8.582-20.438 0-7.663 3.089-15.015 8.582-20.432 5.498-5.423 12.952-8.464 20.724-8.464 7.771 0 15.225 3.041 20.723 8.464 5.493 5.417 8.582 12.768 8.582 20.432 0 7.669-3.089 15.02-8.582 20.438-5.498 5.422-12.952 8.463-20.723 8.463Zm0-44.785v.004c-6.516 0-12.388 3.867-14.882 9.806-2.489 5.935-1.114 12.765 3.494 17.306 4.604 4.544 11.534 5.904 17.551 3.445 6.016-2.459 9.943-8.251 9.943-14.676a15.845 15.845 0 0 0-4.736-11.21 16.29 16.29 0 0 0-11.371-4.67l.001-.005Z" fill="#000"/></svg>